<?xml version="1.0" encoding="iso-8859-1"?>
<!-- Generator: Adobe Illustrator 19.0.0, SVG Export Plug-In . SVG Version: 6.00 Build 0)  -->
<svg version="1.1" id="Layer_1" xmlns="http://www.w3.org/2000/svg" xmlns:xlink="http://www.w3.org/1999/xlink" x="0px" y="0px"
	 viewBox="0 0 512.001 512.001" style="enable-background:new 0 0 512.001 512.001;" xml:space="preserve">
<path style="fill:#F9BA48;" d="M442.763,374.945V13.995C442.763,6.298,436.464,0,428.767,0H83.233
	c-7.697,0-13.994,6.298-13.994,13.995l0.352,484.01c0,7.698,6.298,13.995,13.995,13.995h222.473L442.763,374.945z"/>
<path style="opacity:0.1;enable-background:new    ;" d="M428.767,0h-24.42v336.53L267.643,473.585H69.573l0.018,24.42
	c0,7.697,6.298,13.995,13.995,13.995h222.473l136.703-137.056V13.995C442.763,6.298,436.464,0,428.767,0z"/>
<g>
	<path style="fill:#52D6C6;" d="M211.933,31.01c-48.243,0-87.351,39.109-87.351,87.351c0,27.446,12.669,51.923,32.466,67.937
		c15.001,12.133,34.089,19.413,54.885,19.413c25.42,0,48.295-10.867,64.258-28.199c14.332-15.561,23.092-36.33,23.092-59.153
		C299.285,70.118,260.176,31.01,211.933,31.01z"/>
	<path style="fill:#52D6C6;" d="M211.933,31.01c-48.243,0-87.351,39.109-87.351,87.351c0,27.446,12.669,51.923,32.466,67.937
		l54.885-67.937V31.01z"/>
</g>
<path style="opacity:0.1;enable-background:new    ;" d="M157.049,186.298c15.001,12.133,34.089,19.413,54.885,19.413
	c25.42,0,48.295-10.867,64.258-28.199l-64.258-59.153L157.049,186.298z"/>
<path style="fill:#7A609E;" d="M211.933,31.01v87.351l64.258,59.153c14.332-15.561,23.092-36.33,23.092-59.153
	C299.285,70.118,260.176,31.01,211.933,31.01z"/>
<polygon style="fill:#F6B32C;" points="305.707,512 305.707,374.945 442.763,374.945 "/>
<rect x="124.584" y="374.942" style="fill:#FFFFFF;" width="130.686" height="86.873"/>
<g style="opacity:0.1;">
	<path d="M385.963,251.477h-261.38c-4.329,0-7.837-3.508-7.837-7.837s3.508-7.837,7.837-7.837h261.379
		c4.329,0,7.837,3.508,7.837,7.837S390.291,251.477,385.963,251.477z"/>
</g>
<g style="opacity:0.1;">
	<path d="M385.963,294.354h-261.38c-4.329,0-7.837-3.508-7.837-7.837s3.508-7.837,7.837-7.837h261.379
		c4.329,0,7.837,3.508,7.837,7.837S390.291,294.354,385.963,294.354z"/>
</g>
<g style="opacity:0.1;">
	<path d="M385.963,338.568h-261.38c-4.329,0-7.837-3.508-7.837-7.837s3.508-7.837,7.837-7.837h261.379
		c4.329,0,7.837,3.508,7.837,7.837S390.291,338.568,385.963,338.568z"/>
</g>
<g style="opacity:0.1;">
	<path d="M340.918,213.549c-4.329,0-7.837-3.508-7.837-7.837V118.36c0-4.329,3.508-7.837,7.837-7.837s7.837,3.508,7.837,7.837
		v87.352C348.755,210.04,345.247,213.549,340.918,213.549z"/>
</g>
<g style="opacity:0.1;">
	<path d="M368.627,213.549c-4.329,0-7.837-3.508-7.837-7.837V73.249c0-4.329,3.508-7.837,7.837-7.837s7.837,3.508,7.837,7.837
		v132.463C376.464,210.04,372.956,213.549,368.627,213.549z"/>
</g>
<g>
</g>
<g>
</g>
<g>
</g>
<g>
</g>
<g>
</g>
<g>
</g>
<g>
</g>
<g>
</g>
<g>
</g>
<g>
</g>
<g>
</g>
<g>
</g>
<g>
</g>
<g>
</g>
<g>
</g>
</svg>
